PathFileType	4	(X/Y/Z)	Patient5_TMGait_0pt45_1_right_04.trc.trc
DataRate	CameraRate	NumFrames	NumMarkers	Units	OrigDataRate	OrigDataStartFrame	OrigNumFrames
55.776892430279	55.776892430279	4	32	mm	55.776892430279	71	       141
Frame#	Time	R.ASIS			L.ASIS			Chest			R.Shoulder			Neck			L.Shoulder			L.Elbow			L.Wrist			R.Elbow			R.Wrist			L.Thigh.Superior			L.Thigh.Lateral			L.Thigh.Inferior			L.Patella			L.Shank.Superior			L.Shank.Lateral			L.Shank.Inferior			L.Heel			L.Midfoot.Lateral			L.Midfoot.Superior			L.Toe			R.Thigh.Superior			R.Thigh.Lateral			R.Thigh.Inferior			R.Patella			R.Shank.Superior			R.Shank.Lateral			R.Shank.Inferior			R.Heel			R.Midfoot.Lateral			R.Midfoot.Superior			R.Toe			
		X1	Y1	Z1	X2	Y2	Z2	X3	Y3	Z3	X4	Y4	Z4	X5	Y5	Z5	X6	Y6	Z6	X7	Y7	Z7	X8	Y8	Z8	X9	Y9	Z9	X10	Y10	Z10	X11	Y11	Z11	X12	Y12	Z12	X13	Y13	Z13	X14	Y14	Z14	X15	Y15	Z15	X16	Y16	Z16	X17	Y17	Z17	X18	Y18	Z18	X19	Y19	Z19	X20	Y20	Z20	X21	Y21	Z21	X22	Y22	Z22	X23	Y23	Z23	X24	Y24	Z24	X25	Y25	Z25	X26	Y26	Z26	X27	Y27	Z27	X28	Y28	Z28	X29	Y29	Z29	X30	Y30	Z30	X31	Y31	Z31	X32	Y32	Z32	

71	7.365000000000	944.938564306645	969.876655583775	581.741106101770	981.568838243020	955.096371798148	345.545904695964	1050.674338292368	1428.384140985336	474.034801237897	936.144694266727	1496.323888282228	629.740814686767	926.266570191411	1551.582927961248	441.879571187473	1009.342409390457	1493.063563767876	270.179232868058	918.883795790210	1180.024737031963	138.559022450789	1019.767406490805	910.660305087554	141.044637361668	836.342214785466	1179.885874358971	765.021613172837	1044.317593605566	979.007260599352	736.490235315883	1037.867268222456	757.254414235553	338.643403547650	989.432322090392	673.656414600421	290.053672891822	1063.226719594750	634.700390599279	368.406599368927	1088.781024056816	519.633001386791	379.196688932598	1052.827113152897	409.592908850740	389.953656272831	1009.577417877579	335.428446729220	301.267618043661	1034.033036230509	283.131111713543	390.995265932078	926.331638649750	49.663279541656	378.894700928708	1015.276878282335	28.013043460234	317.699830008908	1111.586700817976	89.636343226288	364.760072325068	1219.828350661999	45.724142031664	366.533438924419	917.135455948426	733.469028879243	602.061978182222	808.191173522453	673.270235005263	639.467776596196	886.643249053113	603.113110112769	580.631362769552	860.938091264061	505.261288602792	608.422040556450	795.311359900442	416.458287278877	562.336162018286	695.455452031946	375.254314445614	630.398971846020	738.866391423531	288.596120397744	558.410090224348	559.921856107485	93.374204575315	509.360342348577	624.165468995045	46.730418450789	587.231821310020	740.174639214835	91.783466339246	579.922649187371	831.859395224230	41.625731228196	584.096518218647	
72	7.382928571429	945.379193669318	972.268839404514	577.936914628901	984.179395212203	956.082085405324	342.332214901096	1052.950802313251	1429.930548275504	471.648981387140	936.330629979094	1498.193492430421	625.538655699624	929.421356355378	1553.512036130727	437.484626883844	1015.177702653682	1494.748813425608	267.271459961182	926.545331029044	1181.842902772813	134.137269256561	1029.904218435145	913.521529253155	138.589927965430	833.532494745418	1182.160699487108	759.505893297629	1041.081264426446	980.643728296471	732.619877314749	1038.074351249956	756.391202057543	335.645044711230	988.532296945341	673.263105795958	287.199884661179	1061.136614451513	633.781736868251	366.406801623000	1085.141726945063	518.752610293821	378.207482750660	1048.209996956947	409.153299392127	389.161598385563	1005.173888850064	334.922686173106	300.550002369989	1028.125521708457	282.907126760229	390.564550707094	918.694093019680	49.596617200861	378.690513695451	1007.673739489403	28.047974155316	317.569545312156	1103.854202059371	89.665505641695	364.830264986577	1212.300226790484	45.682562617118	366.327333177255	920.927123708408	736.564334679687	602.030839037300	813.191580195603	675.023411606462	638.735300919489	893.686671469909	605.195363682149	581.851351375487	868.674164115797	506.365494628950	610.584408726195	800.287334222246	417.037410657961	564.189856246640	699.022973396258	378.638801662009	631.893899844054	740.085450403085	290.896195514654	560.062205395707	555.447795671283	102.620407412683	510.589060151736	617.844170320402	52.362969877067	587.737482244503	735.431973196662	93.081960613476	581.360359669742	824.543666127057	41.490671655918	584.238771727364	
73	7.400857142857	945.511719848872	974.564656700374	574.022414510196	986.180862300175	956.898752401846	339.087076748287	1054.878817588447	1431.141919888261	469.245208770725	936.266500822175	1499.739047351040	621.336513195096	932.298297550680	1555.217374787090	433.132725342091	1020.834471488654	1496.276720490881	264.498361869959	934.434323701149	1183.575500875610	129.507164469888	1040.258282106510	916.342438049778	136.213825708079	831.038020279702	1184.001780353370	754.035607557911	1038.051744351105	981.811274779068	728.753659733136	1037.558054053914	755.568554963193	332.958394355945	987.149648647292	672.957438316184	284.408274325787	1058.424797310672	632.822327025136	364.459546159048	1080.825495554053	517.855766542096	376.969799228917	1043.058286815471	408.703080361129	388.148117472525	1000.189984198516	334.341452987980	299.679312685914	1021.885033390776	282.669436428842	389.972904149669	911.000990091847	49.571363683871	378.504296400567	1000.029110165180	28.064155217880	317.490197530504	1096.082235376541	89.642475431050	364.964388023655	1204.691823326303	45.649642062808	366.291164529137	925.044607140700	739.824558721075	602.565552026809	819.027686237788	676.560720244005	638.545654304353	901.657255762666	607.344441825977	583.532162126993	877.540459038702	507.420864964326	613.184508337944	806.284289732838	417.701313123006	566.551692349547	703.795112569649	382.168899618822	634.122158889692	742.120734269087	293.477666553881	562.140335579649	551.677485218677	112.887233046167	512.273191263645	611.992219148157	58.829063237537	588.525994105857	731.129081207078	94.848264093981	583.025571466083	817.552980715024	41.427114532261	584.545756183464	
74	7.418785714286	945.354490691564	976.749067172265	570.022391066351	987.622241949383	957.626136874204	335.793733101184	1056.394557738234	1432.061401491195	466.804132304377	935.934845264367	1501.007532386076	617.164385101923	934.824441549756	1556.714110036088	428.874728917242	1026.110330346080	1497.639170892203	261.850806845575	942.547157793360	1185.148682046037	124.746072789999	1050.777474614360	919.034045192513	133.913048183589	828.721528870816	1185.419600296570	748.541349562234	1035.188498545334	982.571058851678	724.958363591334	1036.517809254477	754.878844170506	330.587003610702	985.468803060933	672.806346465278	281.726630198895	1055.345885146064	631.909250043253	362.566581390504	1076.105220632018	516.986526489452	375.522835702747	1037.582158981525	408.260258363190	386.939599698473	994.797563010062	333.749462595665	298.648865671290	1015.416377545196	282.428142910183	389.224099066328	903.185171064847	49.580991020127	378.327345662462	992.259959634501	28.067232447059	317.423233449968	1088.209802037320	89.570465378602	365.098082677005	1196.940480158747	45.594877525449	366.333433790141	929.354146818511	743.276405151341	603.557876650637	825.519928904842	678.003903888955	638.860218945721	910.265593252508	609.650105994741	585.547659118058	887.216924289971	508.577178350544	616.090227329249	813.122501968946	418.629006093202	569.322097112098	709.594394758999	385.933173089123	636.978051529282	744.896507656846	296.442884379470	564.553028563521	548.762225949826	124.150726599672	514.376438354697	606.725970880891	66.188301409694	589.597449681389	727.335390985368	97.183709003122	584.909823679994	810.988359716041	41.406893671527	585.079004886872	
